<?xml version="1.0" encoding="UTF-8" standalone="no"?>
<svg
   xmlns:dc="http://purl.org/dc/elements/1.1/"
   xmlns:cc="http://creativecommons.org/ns#"
   xmlns:rdf="http://www.w3.org/1999/02/22-rdf-syntax-ns#"
   xmlns:svg="http://www.w3.org/2000/svg"
   xmlns="http://www.w3.org/2000/svg"
   xmlns:sodipodi="http://sodipodi.sourceforge.net/DTD/sodipodi-0.dtd"
   xmlns:inkscape="http://www.inkscape.org/namespaces/inkscape"
   width="20"
   height="20"
   viewBox="0 0 20 20"
   version="1.1"
   id="svg50"
   sodipodi:docname="add-file.svg"
   inkscape:version="1.0.1 (3bc2e813f5, 2020-09-07)">
  <metadata
     id="metadata56">
    <rdf:RDF>
      <cc:Work
         rdf:about="">
        <dc:format>image/svg+xml</dc:format>
        <dc:type
           rdf:resource="http://purl.org/dc/dcmitype/StillImage" />
        <dc:title></dc:title>
      </cc:Work>
    </rdf:RDF>
  </metadata>
  <defs
     id="defs54" />
  <sodipodi:namedview
     pagecolor="#ffffff"
     bordercolor="#666666"
     borderopacity="1"
     objecttolerance="10"
     gridtolerance="10"
     guidetolerance="10"
     inkscape:pageopacity="0"
     inkscape:pageshadow="2"
     inkscape:window-width="2560"
     inkscape:window-height="1377"
     id="namedview52"
     showgrid="false"
     inkscape:zoom="45.254835"
     inkscape:cx="12.639388"
     inkscape:cy="10.826986"
     inkscape:window-x="-8"
     inkscape:window-y="-8"
     inkscape:window-maximized="1"
     inkscape:current-layer="svg50"
     inkscape:document-rotation="0"
     units="px" />
  <g
     id="#073561ff"
     transform="matrix(0.0390625,0,0,0.0390625,0.10171636,0)">
    <path
       fill="#2c2c2c"
       opacity="1"
       d="M 78.67,0 H 252.4 c 5.13,0.17 8.74,4.07 11.93,7.61 34.46,36.24 68.97,72.42 103.44,108.64 2.53,2.56 4.22,5.98 4.15,9.63 0.06,31.92 -0.01,63.83 0.03,95.75 41.33,8.59 78.5,35.7 98.58,72.93 19.94,35.84 23.53,80.24 9.89,118.89 -10.97,31.79 -33.35,59.46 -62.08,76.9 -22.37,13.95 -48.64,21.14 -74.93,21.65 h -4.53 c -15.28,-0.48 -30.52,-3.02 -44.99,-7.99 -32.39,-10.93 -60.4,-33.86 -77.74,-63.29 -45.4,-0.02 -90.79,0.04 -136.19,-0.03 C 64.87,440.68 49.86,434.47 39.35,423.6 28.8,412.94 22.9,397.98 23.01,383.01 22.99,274.67 22.99,166.34 23.02,58.01 22.91,42.08 29.64,26.21 41.35,15.38 51.35,5.88 64.92,0.47 78.67,0 m -4.69,22.02 c -10.24,1.73 -19.5,8.28 -24.61,17.32 -3.75,6.19 -5.06,13.52 -5.02,20.68 0,106.98 0,213.96 0,320.95 -0.03,6.66 1.02,13.47 4.28,19.36 5.13,9.87 15.17,16.98 26.18,18.53 4.37,0.59 8.8,0.54 13.2,0.51 39.15,-0.01 78.29,0.02 117.43,-0.01 -10.81,-28.01 -13.35,-59.28 -6.27,-88.53 -29.42,-0.04 -58.83,0 -88.25,-0.02 -3.56,0.05 -7.37,-0.97 -9.7,-3.84 -3.91,-4.31 -3.12,-11.76 1.58,-15.17 3.14,-2.56 7.41,-2.35 11.22,-2.36 30.7,0.05 61.39,0.02 92.09,0.02 4.81,-11.81 11.82,-22.46 18.78,-33.08 -37.96,-0.01 -75.91,-0.01 -113.86,0 -2.8,-0.06 -5.79,-0.41 -8.06,-2.21 -4.56,-3.18 -5.66,-10.14 -2.32,-14.58 2.26,-3.34 6.42,-4.68 10.31,-4.56 44.61,-0.03 89.23,0.05 133.85,-0.04 28.93,-24.88 67.52,-38.98 105.78,-36.12 -0.01,-27.78 0.03,-55.56 -0.02,-83.34 -18.21,0.01 -36.42,-0.01 -54.64,0.01 -7.62,0.06 -15.45,-0.13 -22.68,-2.82 -17.94,-6 -30.95,-23.84 -31.34,-42.74 -0.39,-22.87 -0.04,-45.75 -0.17,-68.63 -50.9,-0.01 -101.8,0 -152.7,0 -5.02,-0.01 -10.08,-0.16 -15.06,0.67 M 263.1,37.49 c -0.01,16.49 -0.02,32.98 0,49.48 -0.08,5.94 1.5,11.99 5.15,16.74 4.74,6.53 12.69,10.5 20.76,10.44 15.65,0.08 31.31,0.02 46.96,0.03 C 311.7,88.6 287.4,63.04 263.1,37.49 m 65.44,203.27 c -22.64,2.44 -44.59,11.14 -62.63,25.06 -32.22,24.18 -51.44,64.78 -49.11,105.07 0.62,17.73 5.34,35.25 13.34,51.07 10.98,22.31 29.16,40.9 50.86,52.95 31.11,17.52 69.83,20.64 103.34,8.35 34.96,-12.36 63.61,-41.22 75.73,-76.27 6.8,-19.14 8.68,-40 5.72,-60.08 -5.55,-39.88 -31.86,-76.07 -68.04,-93.72 -21.22,-10.74 -45.57,-14.93 -69.21,-12.43 z"
       id="path34" />
    <path
       fill="#2c2c2c"
       opacity="1"
       d="m 105.36,202.55 c 3.41,-1.18 7.09,-0.83 10.64,-0.88 33.34,0.04 66.67,-0.01 100,0.03 3.74,-0.06 7.67,1.27 9.84,4.47 3.4,4.4 2.34,11.36 -2.17,14.59 -2.43,1.98 -5.67,2.23 -8.66,2.28 -34.68,-0.03 -69.36,0 -104.03,-0.02 -4.39,0.21 -9.1,-1.69 -11.12,-5.8 -2.91,-5.3 -0.17,-12.59 5.5,-14.67 z"
       id="path36" />
    <path
       fill="#2c2c2c"
       opacity="1"
       d="m 331.47,322.37 c -0.05,-5.35 4.23,-10.33 9.64,-10.7 5.97,-0.73 11.53,4.47 11.55,10.42 0.23,11.07 0.02,22.16 0.1,33.25 10.43,0.02 20.87,-0.03 31.31,0.01 3.54,-0.01 7.32,1.11 9.52,4.06 3.09,3.69 3.09,9.53 0,13.22 -2.23,2.96 -6.04,4.06 -9.6,4.05 -10.41,0.04 -20.82,-0.01 -31.23,0.02 -0.03,10.46 0.02,20.92 -0.02,31.38 0.02,3.58 -1.19,7.35 -4.18,9.54 -4.22,3.54 -11.15,2.77 -14.57,-1.52 -2.19,-2.45 -2.6,-5.88 -2.6,-9.04 0.02,-10.12 0.02,-20.24 0.01,-30.37 -10.5,-0.01 -21,0.01 -31.5,0 -3.83,0.07 -7.95,-1.16 -10.21,-4.45 -3.34,-4.35 -2.41,-11.23 1.99,-14.51 2.59,-2.15 6.12,-2.41 9.35,-2.41 10.12,0.04 20.24,0.02 30.37,0.02 0.06,-10.99 -0.1,-21.98 0.07,-32.97 z"
       id="path38" />
  </g>
  <g
     id="#00abe8ff"
     transform="matrix(0.0390625,0,0,0.0390625,0.10171636,0)">
    <path
       fill="#7f7f7f"
       opacity="1"
       d="m 73.98,22.02 c 4.98,-0.83 10.04,-0.68 15.06,-0.67 50.9,0 101.8,-0.01 152.7,0 0.13,22.88 -0.22,45.76 0.17,68.63 0.39,18.9 13.4,36.74 31.34,42.74 7.23,2.69 15.06,2.88 22.68,2.82 18.22,-0.02 36.43,0 54.64,-0.01 0.05,27.78 0.01,55.56 0.02,83.34 -38.26,-2.86 -76.85,11.24 -105.78,36.12 -44.62,0.09 -89.24,0.01 -133.85,0.04 -3.89,-0.12 -8.05,1.22 -10.31,4.56 -3.34,4.44 -2.24,11.4 2.32,14.58 2.27,1.8 5.26,2.15 8.06,2.21 37.95,-0.01 75.9,-0.01 113.86,0 -6.96,10.62 -13.97,21.27 -18.78,33.08 -30.7,0 -61.39,0.03 -92.09,-0.02 -3.81,0.01 -8.08,-0.2 -11.22,2.36 -4.7,3.41 -5.49,10.86 -1.58,15.17 2.33,2.87 6.14,3.89 9.7,3.84 29.42,0.02 58.83,-0.02 88.25,0.02 -7.08,29.25 -4.54,60.52 6.27,88.53 -39.14,0.03 -78.28,0 -117.43,0.01 -4.4,0.03 -8.83,0.08 -13.2,-0.51 -11.01,-1.55 -21.05,-8.66 -26.18,-18.53 -3.26,-5.89 -4.31,-12.7 -4.28,-19.36 0,-106.99 0,-213.97 0,-320.95 -0.04,-7.16 1.27,-14.49 5.02,-20.68 5.11,-9.04 14.37,-15.59 24.61,-17.32 m 31.38,180.53 c -5.67,2.08 -8.41,9.37 -5.5,14.67 2.02,4.11 6.73,6.01 11.12,5.8 34.67,0.02 69.35,-0.01 104.03,0.02 2.99,-0.05 6.23,-0.3 8.66,-2.28 4.51,-3.23 5.57,-10.19 2.17,-14.59 -2.17,-3.2 -6.1,-4.53 -9.84,-4.47 -33.33,-0.04 -66.66,0.01 -100,-0.03 -3.55,0.05 -7.23,-0.3 -10.64,0.88 z"
       id="path41" />
  </g>
  <g
     id="#00eecfff"
     transform="matrix(0.0390625,0,0,0.0390625,0.10171636,0)">
    <path
       fill="#a3a3a3"
       opacity="1"
       d="m 263.1,37.49 c 24.3,25.55 48.6,51.11 72.87,76.69 -15.65,-0.01 -31.31,0.05 -46.96,-0.03 -8.07,0.06 -16.02,-3.91 -20.76,-10.44 -3.65,-4.75 -5.23,-10.8 -5.15,-16.74 -0.02,-16.5 -0.01,-32.99 0,-49.48 z"
       id="path44" />
  </g>
  <g
     id="#fdd93fff"
     transform="matrix(0.0390625,0,0,0.0390625,0.10171636,0)">
    <path
       fill="#d2d2d2"
       opacity="1"
       d="m 328.54,240.76 c 23.64,-2.5 47.99,1.69 69.21,12.43 36.18,17.65 62.49,53.84 68.04,93.72 2.96,20.08 1.08,40.94 -5.72,60.08 -12.12,35.05 -40.77,63.91 -75.73,76.27 -33.51,12.29 -72.23,9.17 -103.34,-8.35 -21.7,-12.05 -39.88,-30.64 -50.86,-52.95 -8,-15.82 -12.72,-33.34 -13.34,-51.07 -2.33,-40.29 16.89,-80.89 49.11,-105.07 18.04,-13.92 39.99,-22.62 62.63,-25.06 m 2.93,81.61 c -0.17,10.99 -0.01,21.98 -0.07,32.97 -10.13,0 -20.25,0.02 -30.37,-0.02 -3.23,0 -6.76,0.26 -9.35,2.41 -4.4,3.28 -5.33,10.16 -1.99,14.51 2.26,3.29 6.38,4.52 10.21,4.45 10.5,0.01 21,-0.01 31.5,0 0.01,10.13 0.01,20.25 -0.01,30.37 0,3.16 0.41,6.59 2.6,9.04 3.42,4.29 10.35,5.06 14.57,1.52 2.99,-2.19 4.2,-5.96 4.18,-9.54 0.04,-10.46 -0.01,-20.92 0.02,-31.38 10.41,-0.03 20.82,0.02 31.23,-0.02 3.56,0.01 7.37,-1.09 9.6,-4.05 3.09,-3.69 3.09,-9.53 0,-13.22 -2.2,-2.95 -5.98,-4.07 -9.52,-4.06 -10.44,-0.04 -20.88,0.01 -31.31,-0.01 -0.08,-11.09 0.13,-22.18 -0.1,-33.25 -0.02,-5.95 -5.58,-11.15 -11.55,-10.42 -5.41,0.37 -9.69,5.35 -9.64,10.7 z"
       id="path47" />
  </g>
</svg>
