<?xml version="1.0" encoding="UTF-8" standalone="no"?>
<svg
   xmlns:dc="http://purl.org/dc/elements/1.1/"
   xmlns:cc="http://creativecommons.org/ns#"
   xmlns:rdf="http://www.w3.org/1999/02/22-rdf-syntax-ns#"
   xmlns:svg="http://www.w3.org/2000/svg"
   xmlns="http://www.w3.org/2000/svg"
   xmlns:sodipodi="http://sodipodi.sourceforge.net/DTD/sodipodi-0.dtd"
   xmlns:inkscape="http://www.inkscape.org/namespaces/inkscape"
   sodipodi:docname="copy.svg"
   xml:space="preserve"
   style="enable-background: new 0 0 512 512"
   viewBox="0 0 512 512"
   y="0px"
   x="0px"
   id="Capa_1"
   version="1.1"
   width="20px"
   height="20px"
   inkscape:version="1.0.1 (3bc2e813f5, 2020-09-07)"><metadata
   id="metadata154"><rdf:RDF><cc:Work
       rdf:about=""><dc:format>image/svg+xml</dc:format><dc:type
         rdf:resource="http://purl.org/dc/dcmitype/StillImage" /></cc:Work></rdf:RDF></metadata><defs
   id="defs152" /><sodipodi:namedview
   pagecolor="#ffffff"
   bordercolor="#666666"
   borderopacity="1"
   objecttolerance="10"
   gridtolerance="10"
   guidetolerance="10"
   inkscape:pageopacity="0"
   inkscape:pageshadow="2"
   inkscape:window-width="768"
   inkscape:window-height="480"
   id="namedview150"
   showgrid="false"
   inkscape:zoom="8.9095455"
   inkscape:cx="-1.6514748"
   inkscape:cy="6.139685"
   inkscape:window-x="1634"
   inkscape:window-y="523"
   inkscape:window-maximized="0"
   inkscape:current-layer="Capa_1"
   inkscape:document-rotation="0" />
  <g
   id="g117">
    <g
   transform="translate(1,1)"
   id="g103">
      <path
   style="fill:#d5d5d5"
   d="M 412.867,101.4 V 468.333 H 71.533 c -9.053,0.003 -17.737,-3.593 -24.139,-9.995 -6.402,-6.402 -9.997,-15.085 -9.995,-24.139 V 101.4 c -0.003,-9.054 3.593,-17.737 9.995,-24.139 6.402,-6.402 15.085,-9.997 24.139,-9.995 H 114.2 c 0.028,-9.414 7.652,-17.039 17.067,-17.067 h 25.6 V 24.6 c 0.028,-9.414 7.652,-17.039 17.067,-17.067 h 102.4 c 9.414,0.028 17.039,7.652 17.067,17.067 V 50.2 H 319 c 9.414,0.028 17.039,7.652 17.067,17.067 h 42.667 c 9.053,-0.003 17.737,3.593 24.139,9.995 6.401,6.401 9.996,15.084 9.994,24.138 z"
   id="path83" />
      <path
   style="fill:#757575"
   d="m 412.867,101.4 v 366.933 h -25.6 V 101.4 c 0.003,-9.054 -3.593,-17.737 -9.995,-24.139 -6.402,-6.402 -15.085,-9.997 -24.139,-9.995 h 25.6 c 9.053,-0.003 17.737,3.593 24.139,9.995 6.402,6.402 9.997,15.085 9.995,24.139 z"
   id="path85" />
      <g
   id="g91">
        <path
   style="fill:#474747"
   d="M 131.267,50.2 H 319 c 9.426,0 17.067,7.641 17.067,17.067 V 101.4 c 0,9.426 -7.641,17.067 -17.067,17.067 H 131.267 c -9.426,0 -17.067,-7.641 -17.067,-17.067 V 67.267 c 0,-9.426 7.641,-17.067 17.067,-17.067 z"
   id="path87" />
        <path
   style="fill:#474747"
   d="M 293.4,24.6 V 50.2 H 156.867 V 24.6 c 0.028,-9.414 7.652,-17.039 17.067,-17.067 h 102.4 c 9.414,0.028 17.038,7.653 17.066,17.067 z"
   id="path89" />
      </g>
      <g
   id="g97">
        <path
   style="fill:#6a6a6a"
   d="M 131.267,50.2 H 293.4 c 9.426,0 17.067,7.641 17.067,17.067 V 101.4 c 0,9.426 -7.641,17.067 -17.067,17.067 H 131.267 c -9.426,0 -17.067,-7.641 -17.067,-17.067 V 67.267 c 0,-9.426 7.641,-17.067 17.067,-17.067 z"
   id="path93" />
        <path
   style="fill:#6a6a6a"
   d="M 267.8,24.6 V 50.2 H 156.867 V 24.6 c 0.028,-9.414 7.652,-17.039 17.067,-17.067 h 76.8 c 9.414,0.028 17.039,7.653 17.066,17.067 z"
   id="path95" />
      </g>
      <path
   style="fill:#989898"
   d="m 472.6,178.2 v 307.2 c -0.028,9.414 -7.653,17.039 -17.067,17.067 h -256 c -7.482,-0.008 -14.087,-4.885 -16.299,-12.032 -0.232,-0.513 -0.376,-1.061 -0.427,-1.621 -0.244,-1.121 -0.359,-2.266 -0.341,-3.413 V 178.2 c -0.017,-1.147 0.097,-2.292 0.341,-3.413 0.051,-0.56 0.195,-1.108 0.427,-1.621 2.211,-7.148 8.817,-12.024 16.299,-12.032 h 256 c 9.415,0.027 17.04,7.652 17.067,17.066 z"
   id="path99" />
      <path
   style="fill:#9c9c9c"
   d="m 447,178.2 v 307.2 c 0.374,8.983 -6.552,16.594 -15.531,17.067 H 197.997 c -7.075,-0.213 -13.126,-5.146 -14.763,-12.032 -0.232,-0.513 -0.376,-1.061 -0.427,-1.621 -0.244,-1.121 -0.359,-2.266 -0.341,-3.413 V 178.2 c -0.017,-1.147 0.097,-2.292 0.341,-3.413 0.051,-0.56 0.195,-1.108 0.427,-1.621 1.636,-6.886 7.688,-11.819 14.763,-12.032 h 233.472 c 8.979,0.472 15.905,8.083 15.531,17.066 z"
   id="path101" />
    </g>
    <g
   id="g115">
      <path
   d="M 456.533,153.6 H 422.4 V 102.4 C 422.372,78.847 403.286,59.761 379.733,59.733 H 344.027 C 340.435,49.534 330.813,42.7 320,42.667 H 302.933 V 25.6 C 302.918,11.468 291.465,0.015 277.333,0 h -102.4 c -14.132,0.015 -25.585,11.468 -25.6,25.6 V 42.667 H 132.266 C 121.453,42.7 111.831,49.535 108.238,59.734 H 72.533 C 48.981,59.761 29.894,78.847 29.867,102.4 v 332.8 c 0.028,23.553 19.114,42.639 42.667,42.667 h 102.4 v 8.533 c 0.015,14.132 11.468,25.585 25.6,25.6 h 256 c 14.132,-0.015 25.585,-11.468 25.6,-25.6 V 179.2 c -0.016,-14.132 -11.469,-25.585 -25.601,-25.6 z M 166.4,25.6 c 0.006,-4.71 3.823,-8.527 8.533,-8.533 h 102.4 c 4.71,0.006 8.527,3.823 8.533,8.533 V 42.667 H 166.4 Z M 132.267,59.733 H 320 c 4.71,0.006 8.527,3.823 8.533,8.533 V 102.4 c -0.006,4.71 -3.823,8.527 -8.533,8.533 H 132.267 c -4.71,-0.006 -8.527,-3.823 -8.533,-8.533 V 68.267 c 0.005,-4.711 3.822,-8.528 8.533,-8.534 z M 72.533,460.8 C 58.401,460.785 46.948,449.332 46.933,435.2 V 102.4 c 0.015,-14.132 11.468,-25.585 25.6,-25.6 h 34.133 v 25.6 c 0.015,14.132 11.468,25.585 25.6,25.6 H 320 c 14.132,-0.015 25.585,-11.468 25.6,-25.6 V 76.8 h 34.133 c 14.132,0.015 25.585,11.468 25.6,25.6 v 51.2 h -204.8 c -14.132,0.015 -25.585,11.468 -25.6,25.6 v 281.6 z m 392.534,25.6 c -0.006,4.71 -3.823,8.527 -8.533,8.533 h -256 c -4.71,-0.006 -8.527,-3.823 -8.533,-8.533 V 179.2 c 0.006,-4.71 3.823,-8.527 8.533,-8.533 h 256 c 4.71,0.006 8.527,3.823 8.533,8.533 z"
   id="path105" />
      <path
   d="m 405.333,256 h -153.6 c -4.713,0 -8.533,3.821 -8.533,8.533 0,4.712 3.821,8.533 8.533,8.533 h 153.6 c 4.713,0 8.533,-3.82 8.533,-8.533 0,-4.713 -3.82,-8.533 -8.533,-8.533 z"
   id="path107" />
      <path
   d="m 405.333,298.667 h -153.6 c -4.713,0 -8.533,3.82 -8.533,8.533 0,4.713 3.821,8.533 8.533,8.533 h 153.6 c 4.713,0 8.533,-3.82 8.533,-8.533 0,-4.713 -3.82,-8.533 -8.533,-8.533 z"
   id="path109" />
      <path
   d="m 405.333,341.333 h -153.6 c -4.713,0 -8.533,3.821 -8.533,8.533 0,4.713 3.821,8.533 8.533,8.533 h 153.6 c 4.713,0 8.533,-3.821 8.533,-8.533 0.001,-4.712 -3.82,-8.533 -8.533,-8.533 z"
   id="path111" />
      <path
   d="m 405.333,384 h -153.6 c -4.713,0 -8.533,3.82 -8.533,8.533 0,4.713 3.821,8.533 8.533,8.533 h 153.6 c 4.713,0 8.533,-3.82 8.533,-8.533 0,-4.713 -3.82,-8.533 -8.533,-8.533 z"
   id="path113" />
    </g>
  </g>
  <g
   id="g119" />
  <g
   id="g121" />
  <g
   id="g123" />
  <g
   id="g125" />
  <g
   id="g127" />
  <g
   id="g129" />
  <g
   id="g131" />
  <g
   id="g133" />
  <g
   id="g135" />
  <g
   id="g137" />
  <g
   id="g139" />
  <g
   id="g141" />
  <g
   id="g143" />
  <g
   id="g145" />
  <g
   id="g147" />
</svg>
