<?xml version="1.0" encoding="UTF-8" standalone="no"?>
<svg
   xmlns:dc="http://purl.org/dc/elements/1.1/"
   xmlns:cc="http://creativecommons.org/ns#"
   xmlns:rdf="http://www.w3.org/1999/02/22-rdf-syntax-ns#"
   xmlns:svg="http://www.w3.org/2000/svg"
   xmlns="http://www.w3.org/2000/svg"
   xmlns:sodipodi="http://sodipodi.sourceforge.net/DTD/sodipodi-0.dtd"
   xmlns:inkscape="http://www.inkscape.org/namespaces/inkscape"
   width="20"
   height="20"
   viewBox="25.6 25.6 512 512"
   version="1.1"
   id="svg94"
   sodipodi:docname="save.svg"
   inkscape:version="1.0.1 (3bc2e813f5, 2020-09-07)">
  <metadata
     id="metadata100">
    <rdf:RDF>
      <cc:Work
         rdf:about="">
        <dc:format>image/svg+xml</dc:format>
        <dc:type
           rdf:resource="http://purl.org/dc/dcmitype/StillImage" />
        <dc:title></dc:title>
      </cc:Work>
    </rdf:RDF>
  </metadata>
  <defs
     id="defs98" />
  <sodipodi:namedview
     pagecolor="#ffffff"
     bordercolor="#666666"
     borderopacity="1"
     objecttolerance="10"
     gridtolerance="10"
     guidetolerance="10"
     inkscape:pageopacity="0"
     inkscape:pageshadow="2"
     inkscape:window-width="2560"
     inkscape:window-height="1377"
     id="namedview96"
     showgrid="false"
     units="px"
     inkscape:zoom="23.625"
     inkscape:cx="3.9961443"
     inkscape:cy="9.0217793"
     inkscape:window-x="-8"
     inkscape:window-y="-8"
     inkscape:window-maximized="1"
     inkscape:current-layer="svg94"
     inkscape:document-rotation="0" />
  <g
     id="#000000ff"
     transform="translate(22.9775,25.6)">
    <path
       fill="#000000"
       opacity="1"
       d="m 32.47,0 h 402.65 c 5.62,0.85 10.97,3.92 13.99,8.82 13.98,22.76 27.85,45.59 41.79,68.37 2.86,4.45 5.86,9.23 5.66,14.74 0.03,133.68 0.02,267.37 0.01,401.06 0.24,9.53 -7.66,18.05 -17.06,19.01 H 32.56 C 23.14,511.1 15.18,502.56 15.43,493.01 15.42,335.01 15.42,177 15.43,18.99 15.17,9.48 23.08,0.94 32.47,0 m -2.05,19.06 c -0.01,157.93 -0.01,315.87 0,473.8 -0.19,2.39 2.2,4.48 4.54,4.14 10.87,-0.03 21.74,0.06 32.6,-0.04 -0.01,-43.31 0,-86.63 0,-129.94 -0.36,-4.24 3.28,-7.96 7.45,-8.1 3.86,0.12 7.43,3.27 7.51,7.23 0.07,43.61 -0.01,87.23 0.04,130.85 110.5,0 221,0.02 331.5,-0.01 4.14,0.03 8.29,0 12.44,0.01 0.06,-67.02 0,-134.04 0.03,-201.06 0.21,-3 -1.08,-6.12 -3.63,-7.8 -3.15,-2.24 -7.21,-1.29 -10.81,-1.45 -107,-0.05 -214,-0.02 -321,-0.02 -4.53,-0.23 -8.68,3.8 -8.53,8.34 -0.05,12.3 0.02,24.6 -0.03,36.9 0,3.85 -3.38,7.26 -7.24,7.33 -3.99,0.19 -7.72,-3.25 -7.71,-7.27 -0.03,-12.66 -0.06,-25.32 0.02,-37.98 0.19,-12.16 11.31,-22.7 23.45,-22.32 108.98,-0.01 217.95,-0.01 326.92,0 12.19,-0.4 23.33,10.17 23.5,22.37 0.11,67.65 0,135.3 0.06,202.95 9.08,-0.01 18.17,0.07 27.25,-0.04 2.76,0.11 5.53,0.02 8.3,0.05 2.32,0.32 4.66,-1.75 4.5,-4.12 0.02,-133.31 0,-266.62 0.01,-399.93 0.36,-2.37 -1.27,-4.24 -2.38,-6.13 -14.15,-23.17 -28.29,-46.34 -42.44,-69.5 -0.7,-1.34 -2.11,-2.4 -3.67,-2.31 -3.01,-0.02 -6.01,-0.02 -9.01,0 -6.16,-0.02 -12.31,-0.02 -18.46,0 -0.05,13.97 0.04,27.94 -0.05,41.91 -0.11,3.99 -3.7,6.94 -7.49,7.24 -3.74,-0.38 -7.34,-3.22 -7.41,-7.19 -0.11,-13.96 -0.04,-27.93 -0.04,-41.89 -4.19,-0.17 -8.39,-0.07 -12.58,-0.05 -38.18,-0.06 -76.36,-0.04 -114.54,-0.01 -0.04,32.34 -0.03,64.67 -0.01,97.01 -0.27,7.19 6.38,13.38 13.49,12.97 32.33,-0.04 64.66,0.08 96.99,-0.06 2.74,0.12 5.6,0.2 8.23,-0.77 4.63,-1.64 8.06,-6.19 8.32,-11.11 0.26,-7.69 -0.11,-15.41 0.18,-23.1 0.5,-4.41 5.25,-7.28 9.44,-6.08 3.11,0.81 5.41,3.83 5.43,7.03 0.05,7.04 0.02,14.08 0.01,21.12 0.04,7.01 -2.68,13.98 -7.48,19.08 -5.34,5.82 -13.24,9.04 -21.12,8.89 -82.01,-0.03 -164.01,0.05 -246.02,-0.04 -14.4,0.09 -27.28,-12.64 -27.31,-27.05 -0.05,-32.61 -0.05,-65.22 0,-97.84 C 80.79,14.9 57.91,15.05 35.03,15 c -2.34,-0.38 -4.76,1.66 -4.61,4.06 m 88.22,-4.05 c -0.02,32.32 -0.02,64.63 0,96.94 -0.29,7.16 6.26,13.38 13.35,13.05 39.88,0 79.76,0.01 119.65,-0.01 -2.03,-4.02 -3.14,-8.48 -3.13,-13 -0.01,-32.31 -0.02,-64.63 0.01,-96.94 -43.3,-0.11 -86.59,-0.03 -129.88,-0.04 z"
       id="path56" />
    <path
       fill="#000000"
       opacity="1"
       d="m 309.22,31.27 c 10.51,-1.06 21.18,-0.2 31.76,-0.47 7.2,-0.41 13.81,5.93 13.62,13.15 0.03,17.38 0.04,34.76 -0.01,52.14 0.12,6.81 -5.81,12.96 -12.63,13.05 -9.99,0.1 -19.99,0.12 -29.98,-0.01 -6.78,-0.2 -12.64,-6.36 -12.46,-13.15 -0.03,-17.33 -0.04,-34.65 0,-51.98 -0.13,-5.81 4.09,-11.27 9.7,-12.73 m 5.3,62.93 c 4.17,-0.01 8.34,0.02 12.51,-0.02 4.13,0.06 8.27,-0.02 12.41,0.04 0.37,-16.06 0.23,-32.33 0.07,-48.44 -4.17,0.05 -8.33,-0.01 -12.48,0.03 -4.17,-0.03 -8.34,0 -12.51,-0.01 -0.05,16.13 -0.05,32.27 0,48.4 z"
       id="path58" />
    <path
       fill="#000000"
       opacity="1"
       d="m 119.11,319.17 c 89.65,-0.24 179.31,-0.03 268.96,-0.11 3.71,-0.35 7.5,2.22 8.19,5.94 1.11,4.41 -2.64,9.09 -7.16,9.05 -89.36,0.04 -178.72,0 -268.08,0.02 -3.74,0.38 -7.58,-2.25 -8.23,-6.02 -0.97,-4.07 2.16,-8.47 6.32,-8.88 z"
       id="path60" />
    <path
       fill="#000000"
       opacity="1"
       d="m 117.12,363.22 c 1.53,-0.72 3.24,-0.63 4.88,-0.62 89.01,0.01 178.01,-0.02 267.01,0.01 4.69,-0.16 8.54,4.87 7.18,9.37 -0.87,3.58 -4.53,5.9 -8.13,5.62 -89.23,-0.01 -178.46,0.01 -267.69,-0.01 -3.03,0.05 -6.03,-1.78 -7.15,-4.64 -1.65,-3.61 0.26,-8.23 3.9,-9.73 z"
       id="path62" />
    <path
       fill="#000000"
       opacity="1"
       d="m 117.44,406.61 c 1.75,-0.71 3.69,-0.51 5.54,-0.55 88.36,0 176.72,0.01 265.08,0 3.72,-0.32 7.52,2.24 8.21,5.98 1.11,4.43 -2.72,9.17 -7.28,9.02 -89.32,0.02 -178.65,0 -267.97,0.01 -2.83,0.26 -5.75,-1.06 -7.24,-3.5 -2.57,-3.77 -0.63,-9.48 3.66,-10.96 z"
       id="path64" />
    <path
       fill="#000000"
       opacity="1"
       d="m 117.18,450.22 c 1.82,-0.84 3.87,-0.58 5.8,-0.62 88.34,0 176.67,0.01 265,0 2.98,-0.25 6.12,1.19 7.52,3.91 3.11,5.04 -1.69,11.9 -7.45,11.09 -88.67,0 -177.34,0 -266.01,0 -3.08,0.31 -6.5,-0.65 -8.19,-3.41 -2.59,-3.69 -0.84,-9.34 3.33,-10.97 z"
       id="path66" />
  </g>
  <g
     id="#82aee3ff"
     transform="translate(22.9775,25.6)">
    <path
       fill="#a7a7a7"
       opacity="1"
       d="m 30.42,19.06 c -0.15,-2.4 2.27,-4.44 4.61,-4.06 22.88,0.05 45.76,-0.1 68.64,0.07 -0.05,32.62 -0.05,65.23 0,97.84 0.03,14.41 12.91,27.14 27.31,27.05 82.01,0.09 164.01,0.01 246.02,0.04 7.88,0.15 15.78,-3.07 21.12,-8.89 4.8,-5.1 7.52,-12.07 7.48,-19.08 0.01,-7.04 0.04,-14.08 -0.01,-21.12 -0.02,-3.2 -2.32,-6.22 -5.43,-7.03 -0.49,-0.18 -1.48,-0.54 -1.97,-0.72 -0.11,-6.33 0.1,-12.67 -0.1,-19 3.79,-0.3 7.38,-3.25 7.49,-7.24 0.09,-13.97 0,-27.94 0.05,-41.91 6.15,-0.02 12.3,-0.02 18.46,0 14.39,23.28 28.53,46.72 42.86,70.04 1.55,2.36 2.24,5.16 2.16,7.97 -0.02,128.32 0.01,256.64 -0.01,384.97 -0.07,6.32 0.23,12.65 -0.32,18.96 -9.08,0.11 -18.17,0.03 -27.25,0.04 -0.06,-67.65 0.05,-135.3 -0.06,-202.95 -0.17,-12.2 -11.31,-22.77 -23.5,-22.37 -108.97,-0.01 -217.94,-0.01 -326.92,0 -12.14,-0.38 -23.26,10.16 -23.45,22.32 -0.08,12.66 -0.05,25.32 -0.02,37.98 -0.01,4.02 3.72,7.46 7.71,7.27 -0.56,6.54 -0.06,13.12 -0.28,19.68 -4.17,0.14 -7.81,3.86 -7.45,8.1 0,43.31 -0.01,86.63 0,129.94 -10.86,0.1 -21.73,0.01 -32.6,0.04 -2.34,0.34 -4.73,-1.75 -4.54,-4.14 -0.01,-157.93 -0.01,-315.87 0,-473.8 z"
       id="path69" />
  </g>
  <g
     id="#d9e7ecff"
     transform="translate(22.9775,25.6)">
    <path
       fill="#e3e3e3"
       opacity="1"
       d="m 118.64,15.01 c 43.29,0.01 86.58,-0.07 129.88,0.04 -0.03,32.31 -0.02,64.63 -0.01,96.94 -0.01,4.52 1.1,8.98 3.13,13 -39.89,0.02 -79.77,0.01 -119.65,0.01 -7.09,0.33 -13.64,-5.89 -13.35,-13.05 -0.02,-32.31 -0.02,-64.62 0,-96.94 z"
       id="path72" />
    <path
       fill="#e3e3e3"
       opacity="1"
       d="m 82.56,295.01 c -0.15,-4.54 4,-8.57 8.53,-8.34 107,0 214,-0.03 321,0.02 2.55,5.79 1.88,12.2 1.95,18.35 -0.03,63.98 -0.03,127.96 0.02,191.95 -110.5,0.03 -221,0.01 -331.5,0.01 -0.05,-43.62 0.03,-87.24 -0.04,-130.85 -0.08,-3.96 -3.65,-7.11 -7.51,-7.23 0.22,-6.56 -0.28,-13.14 0.28,-19.68 3.86,-0.07 7.24,-3.48 7.24,-7.33 0.05,-12.3 -0.02,-24.6 0.03,-36.9 m 36.55,24.16 c -4.16,0.41 -7.29,4.81 -6.32,8.88 0.65,3.77 4.49,6.4 8.23,6.02 89.36,-0.02 178.72,0.02 268.08,-0.02 4.52,0.04 8.27,-4.64 7.16,-9.05 -0.69,-3.72 -4.48,-6.29 -8.19,-5.94 -89.65,0.08 -179.31,-0.13 -268.96,0.11 m -1.99,44.05 c -3.64,1.5 -5.55,6.12 -3.9,9.73 1.12,2.86 4.12,4.69 7.15,4.64 89.23,0.02 178.46,0 267.69,0.01 3.6,0.28 7.26,-2.04 8.13,-5.62 1.36,-4.5 -2.49,-9.53 -7.18,-9.37 -89,-0.03 -178,0 -267.01,-0.01 -1.64,-0.01 -3.35,-0.1 -4.88,0.62 m 0.32,43.39 c -4.29,1.48 -6.23,7.19 -3.66,10.96 1.49,2.44 4.41,3.76 7.24,3.5 89.32,-0.01 178.65,0.01 267.97,-0.01 4.56,0.15 8.39,-4.59 7.28,-9.02 -0.69,-3.74 -4.49,-6.3 -8.21,-5.98 -88.36,0.01 -176.72,0 -265.08,0 -1.85,0.04 -3.79,-0.16 -5.54,0.55 m -0.26,43.61 c -4.17,1.63 -5.92,7.28 -3.33,10.97 1.69,2.76 5.11,3.72 8.19,3.41 88.67,0 177.34,0 266.01,0 5.76,0.81 10.56,-6.05 7.45,-11.09 -1.4,-2.72 -4.54,-4.16 -7.52,-3.91 -88.33,0.01 -176.66,0 -265,0 -1.93,0.04 -3.98,-0.22 -5.8,0.62 z"
       id="path74" />
  </g>
  <g
     id="#596c76ff"
     transform="translate(22.9775,25.6)">
    <path
       fill="#676767"
       opacity="1"
       d="m 263.52,15.02 c 38.18,-0.03 76.36,-0.05 114.54,0.01 -0.03,29.31 0.03,58.61 -0.01,87.92 -0.05,4.03 0.17,8.07 -0.23,12.09 -0.37,3.58 -2.16,6.78 -3.83,9.9 -32.33,0.14 -64.66,0.02 -96.99,0.06 -7.11,0.41 -13.76,-5.78 -13.49,-12.97 -0.02,-32.34 -0.03,-64.67 0.01,-97.01 m 45.7,16.25 c -5.61,1.46 -9.83,6.92 -9.7,12.73 -0.04,17.33 -0.03,34.65 0,51.98 -0.18,6.79 5.68,12.95 12.46,13.15 9.99,0.13 19.99,0.11 29.98,0.01 6.82,-0.09 12.75,-6.24 12.63,-13.05 0.05,-17.38 0.04,-34.76 0.01,-52.14 0.19,-7.22 -6.42,-13.56 -13.62,-13.15 -10.58,0.27 -21.25,-0.59 -31.76,0.47 z"
       id="path77" />
  </g>
  <g
     id="#465a61ff"
     transform="translate(22.9775,25.6)">
    <path
       fill="#555555"
       opacity="1"
       d="m 378.06,15.03 c 4.19,-0.02 8.39,-0.12 12.58,0.05 0,13.96 -0.07,27.93 0.04,41.89 0.07,3.97 3.67,6.81 7.41,7.19 0.2,6.33 -0.01,12.67 0.1,19 0.49,0.18 1.48,0.54 1.97,0.72 -4.19,-1.2 -8.94,1.67 -9.44,6.08 -0.29,7.69 0.08,15.41 -0.18,23.1 -0.26,4.92 -3.69,9.47 -8.32,11.11 -2.63,0.97 -5.49,0.89 -8.23,0.77 1.67,-3.12 3.46,-6.32 3.83,-9.9 0.4,-4.02 0.18,-8.06 0.23,-12.09 0.04,-29.31 -0.02,-58.61 0.01,-87.92 z"
       id="path80" />
  </g>
  <g
     id="#528fd8ff"
     transform="translate(22.9775,25.6)">
    <path
       fill="#858585"
       opacity="1"
       d="m 424.09,15.01 c 3,-0.02 6,-0.02 9.01,0 1.56,-0.09 2.97,0.97 3.67,2.31 14.15,23.16 28.29,46.33 42.44,69.5 1.11,1.89 2.74,3.76 2.38,6.13 -0.01,133.31 0.01,266.62 -0.01,399.93 0.16,2.37 -2.18,4.44 -4.5,4.12 -2.77,-0.03 -5.54,0.06 -8.3,-0.05 0.55,-6.31 0.25,-12.64 0.32,-18.96 0.02,-128.33 -0.01,-256.65 0.01,-384.97 0.08,-2.81 -0.61,-5.61 -2.16,-7.97 C 452.62,61.73 438.48,38.29 424.09,15.01 Z"
       id="path83" />
  </g>
  <g
     id="#c5d3ddff"
     transform="translate(22.9775,25.6)">
    <path
       fill="#d0d0d0"
       opacity="1"
       d="m 314.52,94.2 c -0.05,-16.13 -0.05,-32.27 0,-48.4 4.17,0.01 8.34,-0.02 12.51,0.01 0,16.13 -0.04,32.25 0,48.37 -4.17,0.04 -8.34,0.01 -12.51,0.02 z"
       id="path86" />
    <path
       fill="#d0d0d0"
       opacity="1"
       d="m 412.09,286.69 c 3.6,0.16 7.66,-0.79 10.81,1.45 2.55,1.68 3.84,4.8 3.63,7.8 -0.03,67.02 0.03,134.04 -0.03,201.06 -4.15,-0.01 -8.3,0.02 -12.44,-0.01 -0.05,-63.99 -0.05,-127.97 -0.02,-191.95 -0.07,-6.15 0.6,-12.56 -1.95,-18.35 z"
       id="path88" />
  </g>
  <g
     id="#b6c4cfff"
     transform="translate(22.9775,25.6)">
    <path
       fill="#c1c1c1"
       opacity="1"
       d="m 327.03,45.81 c 4.15,-0.04 8.31,0.02 12.48,-0.03 0.16,16.11 0.3,32.38 -0.07,48.44 -4.14,-0.06 -8.28,0.02 -12.41,-0.04 -0.04,-16.12 0,-32.24 0,-48.37 z"
       id="path91" />
  </g>
</svg>
